#!OML:ASF E:\Steps\Project 1\Capture day 1\Session 2\Subject.ASF
:FULLY-SPECIFIED
:DEGREES
270
root 9.62133 13.4366 21.7894 -135.143 -0.912725 -180.497
lowerback -8.39459 -1.38348 -4.37304
upperback -0.931042 -1.52159 -0.0973461
thorax 3.85027 -0.859094 2.17753
lowerneck -6.40661 -8.12431 5.77876
upperneck -11.4301 -10.7296 -8.63549
head -3.14947 -4.8033 -3.43333
rclavicle -1.39149e-014 -1.19271e-014
rhumerus -51.6294 -13.0724 -66.7742
rradius 29.2399
rwrist 4.08563
rhand -10.5936 -49.9423
rfingers 7.12502
rthumb 15.4119 -79.3478
lclavicle -1.39149e-014 -1.19271e-014
lhumerus -48.2768 -14.1902 76.2044
lradius 36.085
lwrist -0.775928
lhand -26.889 -19.4741
lfingers 7.12502
lthumb -0.312857 10.5054
rfemur -87.0551 5.31421 17.881
rtibia 75.3817
rfoot -41.4146 -11.0354
rtoes -31.3643
lfemur -88.4837 -3.33598 -16.8012
ltibia 77.7766
lfoot -28.4909 7.56763
ltoes -37.7782
271
root 9.62304 13.2825 21.8026 -135.081 -0.652884 -180.366
lowerback -8.01304 -1.32001 -4.47888
upperback -0.772456 -1.43264 -0.0476282
thorax 3.8 -0.813181 2.30503
lowerneck -6.50971 -8.09242 5.75152
upperneck -11.8576 -10.6656 -8.68268
head -3.25728 -4.73543 -3.44651
rclavicle -5.1684e-015 -1.94809e-014
rhumerus -51.4663 -12.817 -66.9993
rradius 29.4399
rwrist 3.69448
rhand -10.6109 -49.6484
rfingers 7.12502
rthumb 15.3953 -79.0552
lclavicle -5.1684e-015 -1.94809e-014
lhumerus -47.708 -13.6372 76.0455
lradius 36.0127
lwrist -0.452644
lhand -27.2377 -19.7829
lfingers 7.12502
lthumb -0.649665 10.1958
rfemur -88.3287 5.6006 18.014
rtibia 77.2745
rfoot -41.8612 -11.6387
rtoes -32.5048
lfemur -89.6265 -3.0367 -17.0642
ltibia 79.5549
lfoot -29.3917 7.83069
ltoes -35.761
272
root 9.62543 13.1301 21.8148 -135.069 -0.365955 -180.21
lowerback -7.5979 -1.19242 -4.52346
upperback -0.625869 -1.26535 -0.105763
thorax 3.70765 -0.726971 2.29464
lowerneck -6.44953 -8.04592 5.73922
upperneck -12.1521 -10.592 -8.70646
head -3.35022 -4.67436 -3.44941
rclavicle 1.98785e-015 -5.56597e-015
rhumerus -51.3426 -12.8459 -67.3203
rradius 29.6448
rwrist 3.46773
rhand -10.756 -49.5136
rfingers 7.12502
rthumb 15.2555 -78.9311
lclavicle 1.98785e-015 -5.56597e-015
lhumerus -46.9513 -13.2795 75.7995
lradius 35.7148
lwrist -0.253938
lhand -27.6339 -20.0245
lfingers 7.12502
lthumb -1.03232 9.95275
rfemur -89.2395 5.86822 18.2048
rtibia 78.5499
rfoot -42.0897 -12.0119
rtoes -33.3223
lfemur -90.689 -2.68196 -17.3115
ltibia 81.2991
lfoot -30.2547 7.10842
ltoes -32.8061
273
root 9.62782 12.9799 21.8446 -134.576 -0.164745 -180.124
lowerback -7.3404 -1.09672 -4.52521
upperback -0.774651 -1.1581 -0.185747
thorax 3.39897 -0.666935 2.22999
lowerneck -6.26985 -8.04222 5.70294
upperneck -12.1835 -10.5864 -8.6063
head -3.38134 -4.67274 -3.40529
rclavicle -2.78299e-015 3.18055e-015
rhumerus -51.297 -12.6918 -67.7963
rradius 29.9116
rwrist 3.11925
rhand -10.9413 -49.4458
rfingers 7.12502
rthumb 15.077 -78.8767
lclavicle -2.78299e-015 3.18055e-015
lhumerus -46.354 -12.6927 75.5138
lradius 35.4481
lwrist -0.361461
lhand -27.986 -20.1564
lfingers 7.12502
lthumb -1.37241 9.81895
rfemur -90.7165 5.98935 18.2913
rtibia 79.9413
rfoot -42.6079 -12.2079
rtoes -33.204
lfemur -92.3986 -2.43076 -17.475
ltibia 83.198
lfoot -30.8952 6.35947
ltoes -29.6695
274
root 9.61623 12.8584 21.8115 -136.352 0.391545 -179.765
lowerback -5.18892 -0.83026 -4.41338
upperback -0.312096 -0.799508 -0.32326
thorax 2.64639 -0.431604 2.08449
lowerneck -6.29084 -8.14403 5.84344
upperneck -12.467 -10.7177 -8.55548
head -3.47903 -4.72639 -3.40609
rclavicle -3.18055e-015 -4.37326e-015
rhumerus -51.2129 -12.253 -68.469
rradius 30.1626
rwrist 2.66919
rhand -11.3591 -49.5905
rfingers 7.12502
rthumb 14.6745 -79.0512
lclavicle -3.18055e-015 -4.37326e-015
lhumerus -45.8454 -11.9781 75.2335
lradius 35.2263
lwrist -0.592892
lhand -28.3017 -20.3825
lfingers 7.12502
lthumb -1.67733 9.59062
rfemur -89.1227 6.62502 18.5987
rtibia 80.6666
rfoot -42.9958 -12.418
rtoes -32.5849
lfemur -91.0213 -2.02096 -17.6961
ltibia 84.1943
lfoot -31.2718 5.92347
ltoes -28.0048
275
root 9.61586 12.7172 21.8315 -136.121 0.46619 -179.89
lowerback -4.74101 -0.837533 -4.45425
upperback -0.416703 -0.827062 -0.443502
thorax 2.28803 -0.434669 1.98723
lowerneck -6.2244 -8.18656 6.01169
upperneck -12.6952 -10.7793 -8.54979
head -3.57244 -4.75025 -3.42379
rclavicle -3.18055e-015 3.57812e-015
rhumerus -50.8764 -12.1701 -69.0601
rradius 30.2583
rwrist 2.58058
rhand -11.8021 -49.5568
rfingers 7.12502
rthumb 14.2477 -79.0481
lclavicle -3.18055e-015 3.57812e-015
lhumerus -45.2833 -11.0247 74.8165
lradius 35.0768
lwrist -1.02805
lhand -28.5546 -20.5402
lfingers 7.12502
lthumb -1.9216 9.43087
rfemur -90.3066 6.50774 18.6075
rtibia 82.1458
rfoot -43.7822 -12.0137
rtoes -32.3716
lfemur -92.3526 -2.12098 -17.8704
ltibia 85.8547
lfoot -31.6897 5.84673
ltoes -28.997
276
root 9.60939 12.5719 21.8428 -135.776 0.45918 -179.941
lowerback -4.6652 -0.850654 -4.3194
upperback -0.470286 -0.851666 -0.542236
thorax 2.18846 -0.44107 1.80963
lowerneck -5.94963 -8.20537 5.95477
upperneck -12.9042 -10.7979 -8.44653
head -3.67305 -4.74716 -3.36911
rclavicle 5.1684e-015 1.74931e-014
rhumerus -50.3511 -12.2108 -69.6001
rradius 30.3132
rwrist 2.69268
rhand -11.8783 -48.7939
rfingers 7.12502
rthumb 14.1743 -78.2903
lclavicle 5.1684e-015 1.74931e-014
lhumerus -44.4939 -9.88501 74.3526
lradius 34.8393
lwrist -1.59838
lhand -28.7788 -20.723
lfingers 7.12502
lthumb -2.13806 9.24606
rfemur -91.8654 6.33545 18.764
rtibia 84.0667
rfoot -44.3609 -12.5541
rtoes -32.7482
lfemur -93.8067 -2.27365 -17.9347
ltibia 87.4986
lfoot -32.0634 5.86923
ltoes -30.8466
277
root 9.60049 12.4302 21.8538 -135.394 0.395215 -179.945
lowerback -4.62319 -0.866231 -4.10302
upperback -0.607887 -0.884051 -0.601339
thorax 2.02092 -0.448264 1.62716
lowerneck -5.67272 -8.17088 5.7426
upperneck -12.9236 -10.7446 -8.38927
head -3.70475 -4.71065 -3.30832
rclavicle -4.37326e-015 1.59028e-014
rhumerus -49.7575 -12.1073 -70.1627
rradius 30.2322
rwrist 2.95053
rhand -11.9237 -47.8417
rfingers 7.12502
rthumb 14.1306 -77.3412
lclavicle -4.37326e-015 1.59028e-014
lhumerus -43.5997 -8.81862 74.0028
lradius 34.4318
lwrist -2.12998
lhand -29.0269 -21.097
lfingers 7.12502
lthumb -2.37771 8.86951
rfemur -93.9157 6.22474 18.9208
rtibia 86.8437
rfoot -45.4635 -12.361
rtoes -32.3795
lfemur -95.3465 -2.40028 -17.9881
ltibia 89.1886
lfoot -32.4355 5.59902
ltoes -30.924
278
root 9.59282 12.2923 21.8664 -134.995 0.346572 -179.895
lowerback -4.57077 -0.872439 -3.85303
upperback -0.774394 -0.904798 -0.678516
thorax 1.81624 -0.44848 1.40861
lowerneck -5.60818 -8.13983 5.6034
upperneck -12.7907 -10.6969 -8.3053
head -3.65965 -4.69322 -3.26086
rclavicle -1.98785e-015 2.0276e-014
rhumerus -48.958 -12.1654 -70.7002
rradius 29.8181
rwrist 3.42417
rhand -12.6113 -46.763
rfingers 7.12502
rthumb 13.4678 -76.3076
lclavicle -1.98785e-015 2.0276e-014
lhumerus -42.6611 -7.91085 73.7188
lradius 34.0475
lwrist -2.42531
lhand -29.3308 -21.3175
lfingers 7.12502
lthumb -2.67114 8.64548
rfemur -95.2881 6.24646 18.9507
rtibia 88.1895
rfoot -45.8655 -12.4372
rtoes -32.6505
lfemur -96.9738 -2.36741 -18.1155
ltibia 91.0492
lfoot -33.0902 4.93336
ltoes -29.5581
279
root 9.58934 12.1679 21.8856 -134.696 0.270501 -179.997
lowerback -4.34943 -0.902051 -3.7684
upperback -0.868571 -0.95432 -0.796586
thorax 1.59484 -0.46548 1.24076
lowerneck -5.55001 -8.11314 5.59903
upperneck -12.8332 -10.6571 -8.25634
head -3.67629 -4.67256 -3.24387
rclavicle -7.55382e-015 -9.14409e-015
rhumerus -47.9209 -12.1869 -71.4855
rradius 29.5766
rwrist 3.57928
rhand -13.6315 -45.4445
rfingers 7.12502
rthumb 12.4844 -75.0516
lclavicle -7.55382e-015 -9.14409e-015
lhumerus -41.4636 -7.18144 73.5263
lradius 33.6582
lwrist -2.48955
lhand -29.7546 -21.1398
lfingers 7.12502
lthumb -3.08045 8.81768
rfemur -96.5162 6.04605 18.9974
rtibia 89.5769
rfoot -46.2957 -12.3133
rtoes -32.3419
lfemur -98.1727 -2.58087 -18.13
ltibia 92.2645
lfoot -33.6134 4.0223
ltoes -26.7823
280
root 9.58798 12.0584 21.8979 -134.719 0.287747 -180.178
lowerback -3.89592 -0.893223 -3.91555
upperback -0.844635 -0.954118 -0.931171
thorax 1.36586 -0.461606 1.19099
lowerneck -5.20439 -8.06738 5.65879
upperneck -13.146 -10.6009 -8.28916
head -3.8272 -4.62499 -3.24832
rclavicle 1.11319e-014 2.38542e-014
rhumerus -46.8462 -11.9133 -72.5895
rradius 29.9511
rwrist 3.16413
rhand -14.4142 -44.5338
rfingers 7.12502
rthumb 11.7297 -74.1854
lclavicle 1.11319e-014 2.38542e-014
lhumerus -40.1005 -6.41585 73.4105
lradius 33.178
lwrist -2.65909
lhand -30.245 -20.6633
lfingers 7.12502
lthumb -3.5541 9.28681
rfemur -97.3046 5.8826 18.9511
rtibia 90.919
rfoot -46.7667 -12.3086
rtoes -32.2714
lfemur -98.9189 -2.72902 -18.3684
ltibia 93.4435
lfoot -34.1584 2.96249
ltoes -22.7601
